<?xml version="1.0" encoding="UTF-8"?>
<!DOCTYPE svg PUBLIC "-//W3C//DTD SVG 1.1//EN" "http://www.w3.org/Graphics/SVG/1.1/DTD/svg11.dtd">
<svg version="1.1" xmlns="http://www.w3.org/2000/svg" xmlns:xlink="http://www.w3.org/1999/xlink" x="0" y="0" width="1078.26" height="1125.714" viewBox="0, 0, 1078.26, 1125.714">
  <g id="Layer_1" transform="translate(-1418.031, -685.258)">
    <path d="M1956.906,685.258 L2197.303,925.656 C2330.071,1058.424 2330.071,1273.683 2197.303,1406.451 C2064.535,1539.219 1849.276,1539.219 1716.508,1406.451 C1583.741,1273.683 1583.741,1058.424 1716.508,925.656 L1947.006,695.158 L1956.906,685.258 z M2051.151,819.101 L1970.906,899.346 L1970.906,1123.095 L2035.241,1034.544 L2028.07,989.266 C2022.399,953.46 2046.828,919.835 2082.635,914.164 C2088.183,913.429 2084.86,913.783 2092.626,913.347 C2125.795,914.114 2151.712,936.06 2157.737,968.729 C2163.408,1004.535 2138.978,1038.16 2103.172,1043.831 L2057.894,1051.002 L1979.558,1158.822 L2106.307,1200.005 L2147.154,1179.193 C2154.01,1175.715 2161.435,1173.422 2169.072,1172.495 C2171.187,1172.239 2173.323,1172.192 2175.449,1172.041 C2200.991,1171.81 2223.346,1185.555 2235.441,1207.879 C2251.9,1240.181 2239.057,1279.709 2206.755,1296.167 C2174.453,1312.626 2134.926,1299.782 2118.467,1267.481 L2097.655,1226.635 L1970.906,1185.451 L1970.906,1318.723 L2003.321,1351.139 C2028.956,1376.774 2028.956,1418.336 2003.321,1443.97 C1977.687,1469.605 1936.125,1469.605 1910.49,1443.97 C1884.855,1418.336 1884.855,1376.774 1910.49,1351.139 L1942.906,1318.723 L1942.906,1185.451 L1816.156,1226.634 L1795.344,1267.481 C1778.886,1299.783 1739.358,1312.626 1707.056,1296.167 C1674.755,1279.709 1661.912,1240.181 1678.37,1207.88 C1691.149,1184.049 1711.746,1172.741 1738.363,1172.041 C1748.302,1172.184 1757.751,1174.935 1766.658,1179.193 L1807.503,1200.005 L1934.253,1158.822 L1855.918,1051.002 L1810.639,1043.831 C1774.833,1038.16 1750.403,1004.536 1756.075,968.729 C1762.342,934.922 1787.325,914.858 1821.185,913.347 C1828.952,913.783 1825.629,913.429 1831.177,914.164 C1866.983,919.835 1891.413,953.46 1885.742,989.266 L1878.57,1034.544 L1942.906,1123.094 L1942.906,899.346 L1862.661,819.101 L1736.307,945.455 C1614.474,1067.288 1614.474,1264.819 1736.307,1386.652 C1858.141,1508.485 2055.671,1508.485 2177.504,1386.652 C2299.337,1264.819 2299.337,1067.288 2177.504,945.455 L2051.151,819.101 z" fill="#FFFFFF"/>
    <path d="M1550.781,1622.757 Q1550.781,1635.975 1548.742,1648.069 Q1546.703,1660.163 1542.203,1670.569 Q1537.703,1680.975 1530.531,1689.483 Q1523.359,1697.991 1512.953,1704.038 Q1502.547,1710.085 1488.765,1713.39 Q1474.984,1716.694 1457.406,1716.694 L1418.031,1716.694 L1418.031,1532.897 L1465.422,1532.897 Q1508.453,1532.897 1529.617,1555.046 Q1550.781,1577.194 1550.781,1622.757 z M1524.484,1624.585 Q1524.484,1605.038 1520.828,1591.538 Q1517.172,1578.038 1509.718,1569.741 Q1502.265,1561.444 1491.015,1557.718 Q1479.765,1553.991 1464.578,1553.991 L1443.062,1553.991 L1443.062,1695.038 L1461.765,1695.038 Q1524.484,1695.038 1524.484,1624.585 z" fill="#FFFFFF"/>
    <path d="M1627.562,1553.991 L1585.234,1553.991 L1585.234,1532.897 L1695.203,1532.897 L1695.203,1553.991 L1652.875,1553.991 L1652.875,1695.319 L1695.203,1695.319 L1695.203,1716.694 L1585.234,1716.694 L1585.234,1695.319 L1627.562,1695.319 z" fill="#FFFFFF"/>
    <path d="M1859.593,1666.913 Q1859.593,1679.991 1854.25,1689.835 Q1848.906,1699.679 1839.343,1706.218 Q1829.781,1712.757 1816.351,1715.991 Q1802.922,1719.225 1786.75,1719.225 Q1779.437,1719.225 1772.195,1718.663 Q1764.953,1718.1 1758.273,1717.257 Q1751.593,1716.413 1745.687,1715.288 Q1739.781,1714.163 1735,1712.897 L1735,1688.71 Q1745.547,1692.647 1758.695,1694.897 Q1771.843,1697.147 1788.578,1697.147 Q1800.672,1697.147 1809.179,1695.249 Q1817.687,1693.35 1823.101,1689.624 Q1828.515,1685.897 1830.976,1680.554 Q1833.437,1675.21 1833.437,1668.319 Q1833.437,1660.866 1829.289,1655.593 Q1825.14,1650.319 1818.39,1646.171 Q1811.64,1642.022 1802.992,1638.577 Q1794.343,1635.132 1785.343,1631.475 Q1776.343,1627.819 1767.695,1623.53 Q1759.047,1619.241 1752.297,1613.405 Q1745.547,1607.569 1741.398,1599.694 Q1737.25,1591.819 1737.25,1580.991 Q1737.25,1571.569 1741.187,1562.429 Q1745.125,1553.288 1753.422,1546.186 Q1761.718,1539.085 1774.726,1534.725 Q1787.734,1530.366 1805.734,1530.366 Q1810.375,1530.366 1815.789,1530.788 Q1821.203,1531.21 1826.757,1531.983 Q1832.312,1532.757 1837.726,1533.741 Q1843.14,1534.725 1847.781,1535.85 L1847.781,1558.35 Q1836.953,1555.257 1826.125,1553.64 Q1815.297,1552.022 1805.172,1552.022 Q1783.656,1552.022 1773.531,1559.194 Q1763.406,1566.366 1763.406,1578.46 Q1763.406,1585.913 1767.554,1591.257 Q1771.703,1596.6 1778.453,1600.819 Q1785.203,1605.038 1793.851,1608.483 Q1802.5,1611.929 1811.5,1615.585 Q1820.5,1619.241 1829.148,1623.6 Q1837.797,1627.96 1844.547,1633.936 Q1851.297,1639.913 1855.445,1647.929 Q1859.593,1655.944 1859.593,1666.913 z" fill="#FFFFFF"/>
    <path d="M2023.984,1554.272 L1969.562,1554.272 L1969.562,1716.694 L1944.25,1716.694 L1944.25,1554.272 L1889.828,1554.272 L1889.828,1532.897 L2023.984,1532.897 z" fill="#FFFFFF"/>
    <path d="M2183.875,1716.694 L2155.609,1716.694 L2128.187,1657.913 Q2125.094,1651.163 2121.859,1646.733 Q2118.625,1642.304 2114.898,1639.702 Q2111.172,1637.1 2106.742,1635.975 Q2102.312,1634.85 2096.828,1634.85 L2085.015,1634.85 L2085.015,1716.694 L2059.984,1716.694 L2059.984,1532.897 L2109.203,1532.897 Q2125.234,1532.897 2136.765,1536.413 Q2148.297,1539.929 2155.679,1546.257 Q2163.062,1552.585 2166.508,1561.515 Q2169.953,1570.444 2169.953,1581.272 Q2169.953,1589.85 2167.422,1597.515 Q2164.89,1605.179 2159.898,1611.436 Q2154.906,1617.694 2147.523,1622.265 Q2140.14,1626.835 2130.578,1629.085 Q2138.312,1631.757 2143.726,1638.436 Q2149.14,1645.116 2154.765,1656.225 z M2143.797,1583.382 Q2143.797,1568.616 2134.586,1561.304 Q2125.375,1553.991 2108.64,1553.991 L2085.015,1553.991 L2085.015,1614.741 L2105.265,1614.741 Q2114.125,1614.741 2121.226,1612.702 Q2128.328,1610.663 2133.32,1606.655 Q2138.312,1602.647 2141.054,1596.811 Q2143.797,1590.975 2143.797,1583.382 z" fill="#FFFFFF"/>
    <path d="M2351.359,1716.694 L2324.078,1716.694 L2311.281,1676.616 L2234.781,1676.616 L2221.844,1716.694 L2195.828,1716.694 L2256.859,1532.897 L2291.172,1532.897 z M2304.109,1654.257 L2273.031,1555.96 L2241.953,1654.257 z" fill="#FFFFFF"/>
    <path d="M2495.64,1589.147 Q2495.64,1600.397 2491.422,1611.436 Q2487.203,1622.475 2478.344,1631.194 Q2469.484,1639.913 2455.703,1645.327 Q2441.922,1650.741 2422.797,1650.741 L2400.015,1650.741 L2400.015,1716.694 L2374.984,1716.694 L2374.984,1532.897 L2426.734,1532.897 Q2440.375,1532.897 2452.89,1535.921 Q2465.406,1538.944 2474.898,1545.694 Q2484.39,1552.444 2490.015,1563.132 Q2495.64,1573.819 2495.64,1589.147 z M2469.625,1590.272 Q2469.625,1572.554 2458.023,1563.132 Q2446.422,1553.71 2425.609,1553.71 L2400.015,1553.71 L2400.015,1629.366 L2423.359,1629.366 Q2445.578,1629.366 2457.601,1619.663 Q2469.625,1609.96 2469.625,1590.272 z" fill="#FFFFFF"/>
    <path d="M1418.418,1781.057 Q1418.418,1776.807 1419.58,1773.503 Q1420.742,1770.199 1422.883,1767.925 Q1425.025,1765.651 1428.03,1764.472 Q1431.035,1763.293 1434.72,1763.293 Q1436.314,1763.293 1437.858,1763.492 Q1439.402,1763.692 1440.896,1764.123 L1440.896,1750.111 L1446.707,1750.111 L1446.707,1797.027 L1441.527,1797.027 L1441.328,1790.719 Q1438.904,1794.238 1436.082,1795.932 Q1433.259,1797.625 1429.972,1797.625 Q1427.117,1797.625 1424.942,1796.43 Q1422.767,1795.234 1421.323,1793.06 Q1419.879,1790.885 1419.148,1787.83 Q1418.418,1784.776 1418.418,1781.057 z M1424.328,1780.692 Q1424.328,1786.734 1426.104,1789.706 Q1427.88,1792.678 1431.134,1792.678 Q1433.326,1792.678 1435.766,1790.719 Q1438.207,1788.76 1440.896,1784.908 L1440.896,1769.436 Q1439.468,1768.772 1437.742,1768.423 Q1436.015,1768.074 1434.322,1768.074 Q1429.607,1768.074 1426.967,1771.129 Q1424.328,1774.184 1424.328,1780.692 z" fill="#FFFFFF"/>
    <path d="M1468.853,1768.473 L1458.992,1768.473 L1458.992,1763.692 L1474.697,1763.692 L1474.697,1792.213 L1484.625,1792.213 L1484.625,1797.027 L1457.896,1797.027 L1457.896,1792.213 L1468.853,1792.213 z M1470.879,1749.713 Q1471.841,1749.713 1472.672,1750.062 Q1473.502,1750.41 1474.116,1751.041 Q1474.73,1751.672 1475.079,1752.485 Q1475.427,1753.299 1475.427,1754.262 Q1475.427,1755.192 1475.079,1756.022 Q1474.73,1756.852 1474.116,1757.483 Q1473.502,1758.113 1472.672,1758.462 Q1471.841,1758.811 1470.879,1758.811 Q1469.916,1758.811 1469.086,1758.462 Q1468.255,1758.113 1467.641,1757.483 Q1467.027,1756.852 1466.678,1756.022 Q1466.33,1755.192 1466.33,1754.262 Q1466.33,1753.299 1466.678,1752.485 Q1467.027,1751.672 1467.641,1751.041 Q1468.255,1750.41 1469.086,1750.062 Q1469.916,1749.713 1470.879,1749.713 z" fill="#FFFFFF"/>
    <path d="M1521.281,1787.93 Q1521.281,1789.69 1520.683,1791.084 Q1520.086,1792.479 1519.056,1793.558 Q1518.027,1794.637 1516.666,1795.401 Q1515.304,1796.164 1513.76,1796.662 Q1512.216,1797.16 1510.589,1797.393 Q1508.963,1797.625 1507.402,1797.625 Q1504.015,1797.625 1501.176,1797.326 Q1498.338,1797.027 1495.615,1796.363 L1495.615,1791.051 Q1498.537,1791.881 1501.425,1792.313 Q1504.314,1792.744 1507.17,1792.744 Q1511.32,1792.744 1513.312,1791.615 Q1515.304,1790.486 1515.304,1788.395 Q1515.304,1787.498 1514.989,1786.784 Q1514.673,1786.07 1513.843,1785.423 Q1513.013,1784.776 1511.27,1784.078 Q1509.527,1783.381 1506.505,1782.484 Q1504.248,1781.82 1502.339,1780.974 Q1500.429,1780.127 1499.035,1778.965 Q1497.64,1777.803 1496.843,1776.242 Q1496.047,1774.682 1496.047,1772.557 Q1496.047,1771.162 1496.694,1769.502 Q1497.341,1767.842 1498.902,1766.414 Q1500.463,1764.986 1503.119,1764.04 Q1505.775,1763.094 1509.759,1763.094 Q1511.718,1763.094 1514.109,1763.31 Q1516.5,1763.526 1519.089,1764.057 L1519.089,1769.203 Q1516.367,1768.539 1513.926,1768.224 Q1511.486,1767.908 1509.693,1767.908 Q1507.535,1767.908 1506.057,1768.24 Q1504.58,1768.572 1503.667,1769.153 Q1502.754,1769.734 1502.355,1770.515 Q1501.957,1771.295 1501.957,1772.192 Q1501.957,1773.088 1502.305,1773.818 Q1502.654,1774.549 1503.6,1775.23 Q1504.547,1775.91 1506.24,1776.591 Q1507.933,1777.272 1510.656,1778.068 Q1513.611,1778.932 1515.636,1779.878 Q1517.662,1780.824 1518.923,1781.986 Q1520.185,1783.149 1520.733,1784.609 Q1521.281,1786.07 1521.281,1787.93 z" fill="#FFFFFF"/>
    <path d="M1559.132,1796.563 Q1557.173,1797.061 1555.082,1797.276 Q1552.99,1797.492 1550.832,1797.492 Q1544.556,1797.492 1541.468,1794.653 Q1538.38,1791.815 1538.38,1785.938 L1538.38,1768.539 L1529.05,1768.539 L1529.05,1763.692 L1538.38,1763.692 L1538.38,1754.527 L1544.158,1753.033 L1544.158,1763.692 L1559.132,1763.692 L1559.132,1768.539 L1544.158,1768.539 L1544.158,1785.473 Q1544.158,1789.059 1546.067,1790.835 Q1547.976,1792.611 1551.695,1792.611 Q1553.289,1792.611 1555.181,1792.362 Q1557.074,1792.113 1559.132,1791.582 z" fill="#FFFFFF"/>
    <path d="M1571.019,1763.692 L1576.298,1763.692 L1576.464,1769.834 Q1579.42,1766.281 1582.292,1764.688 Q1585.164,1763.094 1588.086,1763.094 Q1593.265,1763.094 1595.938,1766.447 Q1598.611,1769.801 1598.412,1776.408 L1592.568,1776.408 Q1592.668,1772.026 1591.29,1770.05 Q1589.912,1768.074 1587.255,1768.074 Q1586.093,1768.074 1584.915,1768.489 Q1583.736,1768.904 1582.491,1769.818 Q1581.246,1770.731 1579.851,1772.158 Q1578.457,1773.586 1576.863,1775.611 L1576.863,1797.027 L1571.019,1797.027 z" fill="#FFFFFF"/>
    <path d="M1618.4,1768.473 L1608.539,1768.473 L1608.539,1763.692 L1624.244,1763.692 L1624.244,1792.213 L1634.172,1792.213 L1634.172,1797.027 L1607.443,1797.027 L1607.443,1792.213 L1618.4,1792.213 z M1620.425,1749.713 Q1621.388,1749.713 1622.218,1750.062 Q1623.048,1750.41 1623.663,1751.041 Q1624.277,1751.672 1624.626,1752.485 Q1624.974,1753.299 1624.974,1754.262 Q1624.974,1755.192 1624.626,1756.022 Q1624.277,1756.852 1623.663,1757.483 Q1623.048,1758.113 1622.218,1758.462 Q1621.388,1758.811 1620.425,1758.811 Q1619.463,1758.811 1618.632,1758.462 Q1617.802,1758.113 1617.188,1757.483 Q1616.574,1756.852 1616.225,1756.022 Q1615.877,1755.192 1615.877,1754.262 Q1615.877,1753.299 1616.225,1752.485 Q1616.574,1751.672 1617.188,1751.041 Q1617.802,1750.41 1618.632,1750.062 Q1619.463,1749.713 1620.425,1749.713 z" fill="#FFFFFF"/>
    <path d="M1672.92,1779.762 Q1672.92,1783.912 1671.774,1787.183 Q1670.629,1790.453 1668.52,1792.728 Q1666.412,1795.002 1663.39,1796.214 Q1660.369,1797.426 1656.584,1797.426 Q1653.629,1797.426 1650.541,1796.861 Q1647.453,1796.297 1644.431,1795.068 L1644.431,1750.111 L1650.209,1750.111 L1650.209,1763.027 L1649.943,1769.203 Q1652.433,1765.85 1655.272,1764.472 Q1658.111,1763.094 1661.365,1763.094 Q1664.22,1763.094 1666.379,1764.289 Q1668.537,1765.484 1669.998,1767.659 Q1671.459,1769.834 1672.189,1772.905 Q1672.92,1775.977 1672.92,1779.762 z M1667.009,1780.027 Q1667.009,1777.404 1666.628,1775.213 Q1666.246,1773.022 1665.416,1771.461 Q1664.586,1769.901 1663.291,1769.021 Q1661.996,1768.141 1660.203,1768.141 Q1659.107,1768.141 1657.978,1768.489 Q1656.849,1768.838 1655.637,1769.651 Q1654.425,1770.465 1653.081,1771.81 Q1651.736,1773.154 1650.209,1775.147 L1650.209,1791.317 Q1651.902,1791.981 1653.662,1792.362 Q1655.422,1792.744 1657.015,1792.744 Q1659.007,1792.744 1660.817,1792.113 Q1662.627,1791.483 1664.005,1790.005 Q1665.382,1788.527 1666.196,1786.087 Q1667.009,1783.647 1667.009,1780.027 z" fill="#FFFFFF"/>
    <path d="M1708.613,1797.027 L1703.433,1797.027 L1703.234,1791.649 Q1701.74,1793.375 1700.395,1794.521 Q1699.05,1795.666 1697.722,1796.363 Q1696.394,1797.061 1695.049,1797.343 Q1693.705,1797.625 1692.211,1797.625 Q1687.064,1797.625 1684.441,1794.604 Q1681.818,1791.582 1681.818,1785.473 L1681.818,1763.692 L1687.595,1763.692 L1687.595,1785.008 Q1687.595,1792.678 1693.373,1792.678 Q1694.435,1792.678 1695.448,1792.362 Q1696.461,1792.047 1697.573,1791.267 Q1698.685,1790.486 1699.964,1789.158 Q1701.242,1787.83 1702.836,1785.805 L1702.836,1763.692 L1708.613,1763.692 z" fill="#FFFFFF"/>
    <path d="M1746.066,1796.563 Q1744.107,1797.061 1742.015,1797.276 Q1739.923,1797.492 1737.765,1797.492 Q1731.49,1797.492 1728.402,1794.653 Q1725.314,1791.815 1725.314,1785.938 L1725.314,1768.539 L1715.984,1768.539 L1715.984,1763.692 L1725.314,1763.692 L1725.314,1754.527 L1731.091,1753.033 L1731.091,1763.692 L1746.066,1763.692 L1746.066,1768.539 L1731.091,1768.539 L1731.091,1785.473 Q1731.091,1789.059 1733.001,1790.835 Q1734.91,1792.611 1738.629,1792.611 Q1740.222,1792.611 1742.115,1792.362 Q1744.007,1792.113 1746.066,1791.582 z" fill="#FFFFFF"/>
    <path d="M1784.748,1778.6 Q1784.748,1779.828 1784.714,1780.658 Q1784.681,1781.488 1784.615,1782.219 L1761.207,1782.219 Q1761.207,1787.332 1764.062,1790.071 Q1766.918,1792.811 1772.297,1792.811 Q1773.757,1792.811 1775.218,1792.694 Q1776.679,1792.578 1778.041,1792.379 Q1779.402,1792.18 1780.647,1791.931 Q1781.892,1791.682 1782.955,1791.383 L1782.955,1796.131 Q1780.597,1796.795 1777.626,1797.21 Q1774.654,1797.625 1771.466,1797.625 Q1767.183,1797.625 1764.095,1796.463 Q1761.007,1795.301 1759.032,1793.093 Q1757.056,1790.885 1756.11,1787.681 Q1755.164,1784.477 1755.164,1780.426 Q1755.164,1776.906 1756.176,1773.769 Q1757.189,1770.631 1759.131,1768.257 Q1761.074,1765.883 1763.896,1764.488 Q1766.718,1763.094 1770.304,1763.094 Q1773.791,1763.094 1776.48,1764.19 Q1779.17,1765.285 1781.012,1767.294 Q1782.855,1769.303 1783.801,1772.175 Q1784.748,1775.047 1784.748,1778.6 z M1778.738,1777.77 Q1778.838,1775.545 1778.306,1773.702 Q1777.775,1771.859 1776.663,1770.531 Q1775.55,1769.203 1773.89,1768.456 Q1772.23,1767.709 1770.039,1767.709 Q1768.146,1767.709 1766.586,1768.44 Q1765.025,1769.17 1763.896,1770.498 Q1762.767,1771.826 1762.07,1773.686 Q1761.373,1775.545 1761.207,1777.77 z" fill="#FFFFFF"/>
    <path d="M1792.285,1781.057 Q1792.285,1776.807 1793.447,1773.503 Q1794.609,1770.199 1796.751,1767.925 Q1798.892,1765.651 1801.897,1764.472 Q1804.902,1763.293 1808.588,1763.293 Q1810.181,1763.293 1811.725,1763.492 Q1813.269,1763.692 1814.763,1764.123 L1814.763,1750.111 L1820.574,1750.111 L1820.574,1797.027 L1815.394,1797.027 L1815.195,1790.719 Q1812.771,1794.238 1809.949,1795.932 Q1807.127,1797.625 1803.839,1797.625 Q1800.984,1797.625 1798.809,1796.43 Q1796.634,1795.234 1795.19,1793.06 Q1793.746,1790.885 1793.015,1787.83 Q1792.285,1784.776 1792.285,1781.057 z M1798.195,1780.692 Q1798.195,1786.734 1799.971,1789.706 Q1801.748,1792.678 1805.002,1792.678 Q1807.193,1792.678 1809.633,1790.719 Q1812.074,1788.76 1814.763,1784.908 L1814.763,1769.436 Q1813.336,1768.772 1811.609,1768.423 Q1809.882,1768.074 1808.189,1768.074 Q1803.474,1768.074 1800.835,1771.129 Q1798.195,1774.184 1798.195,1780.692 z" fill="#FFFFFF"/>
    <path d="M1870.113,1763.692 L1875.392,1763.692 L1875.558,1769.834 Q1878.513,1766.281 1881.385,1764.688 Q1884.257,1763.094 1887.179,1763.094 Q1892.359,1763.094 1895.032,1766.447 Q1897.705,1769.801 1897.505,1776.408 L1891.662,1776.408 Q1891.761,1772.026 1890.383,1770.05 Q1889.005,1768.074 1886.349,1768.074 Q1885.187,1768.074 1884.008,1768.489 Q1882.83,1768.904 1881.585,1769.818 Q1880.339,1770.731 1878.945,1772.158 Q1877.55,1773.586 1875.957,1775.611 L1875.957,1797.027 L1870.113,1797.027 z" fill="#FFFFFF"/>
    <path d="M1927.554,1797.027 L1927.422,1792.545 Q1924.699,1795.234 1921.893,1796.43 Q1919.088,1797.625 1916,1797.625 Q1913.144,1797.625 1911.119,1796.895 Q1909.093,1796.164 1907.782,1794.886 Q1906.47,1793.608 1905.856,1791.881 Q1905.242,1790.154 1905.242,1788.129 Q1905.242,1783.115 1908.977,1780.276 Q1912.713,1777.438 1920.017,1777.438 L1926.923,1777.438 L1926.923,1774.516 Q1926.923,1771.561 1925.031,1769.784 Q1923.138,1768.008 1919.254,1768.008 Q1916.431,1768.008 1913.692,1768.639 Q1910.953,1769.27 1908.031,1770.432 L1908.031,1765.219 Q1909.127,1764.82 1910.471,1764.439 Q1911.816,1764.057 1913.31,1763.758 Q1914.804,1763.459 1916.431,1763.276 Q1918.058,1763.094 1919.718,1763.094 Q1922.74,1763.094 1925.164,1763.758 Q1927.588,1764.422 1929.264,1765.783 Q1930.941,1767.145 1931.838,1769.203 Q1932.734,1771.262 1932.734,1774.051 L1932.734,1797.027 z M1926.923,1781.854 L1919.586,1781.854 Q1917.427,1781.854 1915.867,1782.285 Q1914.306,1782.717 1913.31,1783.514 Q1912.314,1784.311 1911.833,1785.423 Q1911.351,1786.535 1911.351,1787.93 Q1911.351,1788.893 1911.65,1789.773 Q1911.949,1790.652 1912.613,1791.333 Q1913.277,1792.014 1914.339,1792.412 Q1915.402,1792.811 1916.929,1792.811 Q1918.922,1792.811 1921.495,1791.599 Q1924.068,1790.387 1926.923,1787.764 z" fill="#FFFFFF"/>
    <path d="M1972.013,1779.762 Q1972.013,1784.211 1970.768,1787.531 Q1969.523,1790.852 1967.332,1793.043 Q1965.14,1795.234 1962.152,1796.33 Q1959.164,1797.426 1955.677,1797.426 Q1954.084,1797.426 1952.506,1797.26 Q1950.929,1797.094 1949.302,1796.695 L1949.302,1810.641 L1943.525,1810.641 L1943.525,1763.692 L1948.672,1763.692 L1949.037,1769.27 Q1951.527,1765.85 1954.349,1764.472 Q1957.172,1763.094 1960.459,1763.094 Q1963.314,1763.094 1965.472,1764.289 Q1967.63,1765.484 1969.091,1767.659 Q1970.552,1769.834 1971.283,1772.905 Q1972.013,1775.977 1972.013,1779.762 z M1966.103,1780.027 Q1966.103,1777.404 1965.721,1775.213 Q1965.339,1773.022 1964.509,1771.461 Q1963.679,1769.901 1962.384,1769.021 Q1961.089,1768.141 1959.297,1768.141 Q1958.201,1768.141 1957.072,1768.489 Q1955.943,1768.838 1954.731,1769.651 Q1953.519,1770.465 1952.174,1771.81 Q1950.83,1773.154 1949.302,1775.147 L1949.302,1791.317 Q1950.896,1791.981 1952.656,1792.362 Q1954.416,1792.744 1956.109,1792.744 Q1960.791,1792.744 1963.447,1789.573 Q1966.103,1786.402 1966.103,1780.027 z" fill="#FFFFFF"/>
    <path d="M1992.267,1768.473 L1982.406,1768.473 L1982.406,1763.692 L1998.111,1763.692 L1998.111,1792.213 L2008.039,1792.213 L2008.039,1797.027 L1981.31,1797.027 L1981.31,1792.213 L1992.267,1792.213 z M1994.293,1749.713 Q1995.255,1749.713 1996.086,1750.062 Q1996.916,1750.41 1997.53,1751.041 Q1998.144,1751.672 1998.493,1752.485 Q1998.841,1753.299 1998.841,1754.262 Q1998.841,1755.192 1998.493,1756.022 Q1998.144,1756.852 1997.53,1757.483 Q1996.916,1758.113 1996.086,1758.462 Q1995.255,1758.811 1994.293,1758.811 Q1993.33,1758.811 1992.5,1758.462 Q1991.67,1758.113 1991.055,1757.483 Q1990.441,1756.852 1990.092,1756.022 Q1989.744,1755.192 1989.744,1754.262 Q1989.744,1753.299 1990.092,1752.485 Q1990.441,1751.672 1991.055,1751.041 Q1991.67,1750.41 1992.5,1750.062 Q1993.33,1749.713 1994.293,1749.713 z" fill="#FFFFFF"/>
    <path d="M2016.605,1781.057 Q2016.605,1776.807 2017.767,1773.503 Q2018.929,1770.199 2021.071,1767.925 Q2023.213,1765.651 2026.217,1764.472 Q2029.222,1763.293 2032.908,1763.293 Q2034.502,1763.293 2036.046,1763.492 Q2037.589,1763.692 2039.084,1764.123 L2039.084,1750.111 L2044.894,1750.111 L2044.894,1797.027 L2039.714,1797.027 L2039.515,1790.719 Q2037.091,1794.238 2034.269,1795.932 Q2031.447,1797.625 2028.16,1797.625 Q2025.304,1797.625 2023.13,1796.43 Q2020.955,1795.234 2019.51,1793.06 Q2018.066,1790.885 2017.336,1787.83 Q2016.605,1784.776 2016.605,1781.057 z M2022.515,1780.692 Q2022.515,1786.734 2024.292,1789.706 Q2026.068,1792.678 2029.322,1792.678 Q2031.513,1792.678 2033.954,1790.719 Q2036.394,1788.76 2039.084,1784.908 L2039.084,1769.436 Q2037.656,1768.772 2035.929,1768.423 Q2034.203,1768.074 2032.509,1768.074 Q2027.795,1768.074 2025.155,1771.129 Q2022.515,1774.184 2022.515,1780.692 z" fill="#FFFFFF"/>
    <path d="M2121.56,1779.762 Q2121.56,1784.211 2120.315,1787.531 Q2119.07,1790.852 2116.879,1793.043 Q2114.687,1795.234 2111.699,1796.33 Q2108.711,1797.426 2105.224,1797.426 Q2103.631,1797.426 2102.053,1797.26 Q2100.476,1797.094 2098.849,1796.695 L2098.849,1810.641 L2093.072,1810.641 L2093.072,1763.692 L2098.219,1763.692 L2098.584,1769.27 Q2101.074,1765.85 2103.896,1764.472 Q2106.719,1763.094 2110.006,1763.094 Q2112.861,1763.094 2115.019,1764.289 Q2117.177,1765.484 2118.638,1767.659 Q2120.099,1769.834 2120.83,1772.905 Q2121.56,1775.977 2121.56,1779.762 z M2115.65,1780.027 Q2115.65,1777.404 2115.268,1775.213 Q2114.886,1773.022 2114.056,1771.461 Q2113.226,1769.901 2111.931,1769.021 Q2110.636,1768.141 2108.844,1768.141 Q2107.748,1768.141 2106.619,1768.489 Q2105.49,1768.838 2104.278,1769.651 Q2103.066,1770.465 2101.721,1771.81 Q2100.377,1773.154 2098.849,1775.147 L2098.849,1791.317 Q2100.443,1791.981 2102.203,1792.362 Q2103.963,1792.744 2105.656,1792.744 Q2110.338,1792.744 2112.994,1789.573 Q2115.65,1786.402 2115.65,1780.027 z" fill="#FFFFFF"/>
    <path d="M2131.82,1763.692 L2137.099,1763.692 L2137.265,1769.834 Q2140.22,1766.281 2143.093,1764.688 Q2145.965,1763.094 2148.886,1763.094 Q2154.066,1763.094 2156.739,1766.447 Q2159.412,1769.801 2159.213,1776.408 L2153.369,1776.408 Q2153.469,1772.026 2152.091,1770.05 Q2150.713,1768.074 2148.056,1768.074 Q2146.894,1768.074 2145.716,1768.489 Q2144.537,1768.904 2143.292,1769.818 Q2142.047,1770.731 2140.652,1772.158 Q2139.258,1773.586 2137.664,1775.611 L2137.664,1797.027 L2131.82,1797.027 z" fill="#FFFFFF"/>
    <path d="M2196.865,1780.094 Q2196.865,1783.979 2195.769,1787.216 Q2194.674,1790.453 2192.615,1792.761 Q2190.556,1795.068 2187.601,1796.347 Q2184.646,1797.625 2180.894,1797.625 Q2177.308,1797.625 2174.469,1796.513 Q2171.631,1795.401 2169.655,1793.242 Q2167.679,1791.084 2166.634,1787.897 Q2165.588,1784.709 2165.588,1780.559 Q2165.588,1776.674 2166.683,1773.47 Q2167.779,1770.266 2169.838,1767.958 Q2171.896,1765.651 2174.851,1764.372 Q2177.806,1763.094 2181.558,1763.094 Q2185.144,1763.094 2187.983,1764.206 Q2190.822,1765.318 2192.798,1767.46 Q2194.773,1769.602 2195.819,1772.789 Q2196.865,1775.977 2196.865,1780.094 z M2190.955,1780.359 Q2190.955,1777.272 2190.274,1774.964 Q2189.594,1772.656 2188.332,1771.112 Q2187.07,1769.568 2185.26,1768.788 Q2183.451,1768.008 2181.226,1768.008 Q2178.636,1768.008 2176.794,1769.021 Q2174.951,1770.033 2173.772,1771.727 Q2172.594,1773.42 2172.046,1775.661 Q2171.498,1777.902 2171.498,1780.359 Q2171.498,1783.447 2172.178,1785.772 Q2172.859,1788.096 2174.121,1789.64 Q2175.383,1791.184 2177.176,1791.964 Q2178.969,1792.744 2181.226,1792.744 Q2183.816,1792.744 2185.659,1791.732 Q2187.502,1790.719 2188.68,1789.026 Q2189.859,1787.332 2190.407,1785.091 Q2190.955,1782.85 2190.955,1780.359 z" fill="#FFFFFF"/>
    <path d="M2232.094,1796.563 Q2230.135,1797.061 2228.043,1797.276 Q2225.951,1797.492 2223.793,1797.492 Q2217.517,1797.492 2214.429,1794.653 Q2211.342,1791.815 2211.342,1785.938 L2211.342,1768.539 L2202.011,1768.539 L2202.011,1763.692 L2211.342,1763.692 L2211.342,1754.527 L2217.119,1753.033 L2217.119,1763.692 L2232.094,1763.692 L2232.094,1768.539 L2217.119,1768.539 L2217.119,1785.473 Q2217.119,1789.059 2219.028,1790.835 Q2220.937,1792.611 2224.656,1792.611 Q2226.25,1792.611 2228.142,1792.362 Q2230.035,1792.113 2232.094,1791.582 z" fill="#FFFFFF"/>
    <path d="M2271.638,1780.094 Q2271.638,1783.979 2270.543,1787.216 Q2269.447,1790.453 2267.388,1792.761 Q2265.33,1795.068 2262.375,1796.347 Q2259.42,1797.625 2255.668,1797.625 Q2252.082,1797.625 2249.243,1796.513 Q2246.404,1795.401 2244.428,1793.242 Q2242.453,1791.084 2241.407,1787.897 Q2240.361,1784.709 2240.361,1780.559 Q2240.361,1776.674 2241.457,1773.47 Q2242.552,1770.266 2244.611,1767.958 Q2246.67,1765.651 2249.625,1764.372 Q2252.58,1763.094 2256.332,1763.094 Q2259.918,1763.094 2262.757,1764.206 Q2265.595,1765.318 2267.571,1767.46 Q2269.547,1769.602 2270.593,1772.789 Q2271.638,1775.977 2271.638,1780.094 z M2265.728,1780.359 Q2265.728,1777.272 2265.048,1774.964 Q2264.367,1772.656 2263.105,1771.112 Q2261.844,1769.568 2260.034,1768.788 Q2258.224,1768.008 2256,1768.008 Q2253.41,1768.008 2251.567,1769.021 Q2249.724,1770.033 2248.546,1771.727 Q2247.367,1773.42 2246.819,1775.661 Q2246.271,1777.902 2246.271,1780.359 Q2246.271,1783.447 2246.952,1785.772 Q2247.633,1788.096 2248.894,1789.64 Q2250.156,1791.184 2251.949,1791.964 Q2253.742,1792.744 2256,1792.744 Q2258.59,1792.744 2260.432,1791.732 Q2262.275,1790.719 2263.454,1789.026 Q2264.633,1787.332 2265.18,1785.091 Q2265.728,1782.85 2265.728,1780.359 z" fill="#FFFFFF"/>
    <path d="M2306.867,1796.563 Q2304.908,1797.061 2302.816,1797.276 Q2300.724,1797.492 2298.566,1797.492 Q2292.291,1797.492 2289.203,1794.653 Q2286.115,1791.815 2286.115,1785.938 L2286.115,1768.539 L2276.785,1768.539 L2276.785,1763.692 L2286.115,1763.692 L2286.115,1754.527 L2291.892,1753.033 L2291.892,1763.692 L2306.867,1763.692 L2306.867,1768.539 L2291.892,1768.539 L2291.892,1785.473 Q2291.892,1789.059 2293.802,1790.835 Q2295.711,1792.611 2299.429,1792.611 Q2301.023,1792.611 2302.916,1792.362 Q2304.808,1792.113 2306.867,1791.582 z" fill="#FFFFFF"/>
    <path d="M2347.043,1763.692 L2335.687,1793.508 Q2333.927,1798.057 2332.052,1801.344 Q2330.176,1804.631 2327.951,1806.739 Q2325.726,1808.848 2323.07,1809.844 Q2320.414,1810.84 2317.127,1810.84 Q2316.263,1810.84 2315.566,1810.807 Q2314.869,1810.774 2314.039,1810.707 L2314.039,1805.461 Q2314.769,1805.561 2315.633,1805.644 Q2316.496,1805.727 2317.459,1805.727 Q2319.052,1805.727 2320.43,1805.262 Q2321.808,1804.797 2323.037,1803.751 Q2324.265,1802.705 2325.394,1801.045 Q2326.523,1799.385 2327.586,1797.027 L2314.271,1763.692 L2320.845,1763.692 L2329.279,1785.738 L2330.972,1790.918 L2332.898,1785.606 L2340.701,1763.692 z" fill="#FFFFFF"/>
    <path d="M2383.267,1779.762 Q2383.267,1784.211 2382.022,1787.531 Q2380.777,1790.852 2378.586,1793.043 Q2376.394,1795.234 2373.406,1796.33 Q2370.418,1797.426 2366.931,1797.426 Q2365.338,1797.426 2363.76,1797.26 Q2362.183,1797.094 2360.556,1796.695 L2360.556,1810.641 L2354.779,1810.641 L2354.779,1763.692 L2359.926,1763.692 L2360.291,1769.27 Q2362.781,1765.85 2365.603,1764.472 Q2368.426,1763.094 2371.713,1763.094 Q2374.568,1763.094 2376.726,1764.289 Q2378.885,1765.484 2380.345,1767.659 Q2381.806,1769.834 2382.537,1772.905 Q2383.267,1775.977 2383.267,1779.762 z M2377.357,1780.027 Q2377.357,1777.404 2376.975,1775.213 Q2376.594,1773.022 2375.763,1771.461 Q2374.933,1769.901 2373.638,1769.021 Q2372.344,1768.141 2370.551,1768.141 Q2369.455,1768.141 2368.326,1768.489 Q2367.197,1768.838 2365.985,1769.651 Q2364.773,1770.465 2363.428,1771.81 Q2362.084,1773.154 2360.556,1775.147 L2360.556,1791.317 Q2362.15,1791.981 2363.91,1792.362 Q2365.67,1792.744 2367.363,1792.744 Q2372.045,1792.744 2374.701,1789.573 Q2377.357,1786.402 2377.357,1780.027 z" fill="#FFFFFF"/>
    <path d="M2403.521,1768.473 L2393.66,1768.473 L2393.66,1763.692 L2409.365,1763.692 L2409.365,1792.213 L2419.293,1792.213 L2419.293,1797.027 L2392.564,1797.027 L2392.564,1792.213 L2403.521,1792.213 z M2405.547,1749.713 Q2406.51,1749.713 2407.34,1750.062 Q2408.17,1750.41 2408.784,1751.041 Q2409.398,1751.672 2409.747,1752.485 Q2410.095,1753.299 2410.095,1754.262 Q2410.095,1755.192 2409.747,1756.022 Q2409.398,1756.852 2408.784,1757.483 Q2408.17,1758.113 2407.34,1758.462 Q2406.51,1758.811 2405.547,1758.811 Q2404.584,1758.811 2403.754,1758.462 Q2402.924,1758.113 2402.309,1757.483 Q2401.695,1756.852 2401.346,1756.022 Q2400.998,1755.192 2400.998,1754.262 Q2400.998,1753.299 2401.346,1752.485 Q2401.695,1751.672 2402.309,1751.041 Q2402.924,1750.41 2403.754,1750.062 Q2404.584,1749.713 2405.547,1749.713 z" fill="#FFFFFF"/>
    <path d="M2429.552,1763.692 L2434.699,1763.692 L2434.931,1769.07 Q2436.392,1767.344 2437.754,1766.198 Q2439.115,1765.053 2440.427,1764.356 Q2441.738,1763.658 2443.099,1763.376 Q2444.461,1763.094 2445.922,1763.094 Q2451.068,1763.094 2453.708,1766.132 Q2456.347,1769.17 2456.347,1775.279 L2456.347,1797.027 L2450.57,1797.027 L2450.57,1775.744 Q2450.57,1771.826 2449.109,1769.95 Q2447.648,1768.074 2444.76,1768.074 Q2443.697,1768.074 2442.684,1768.39 Q2441.672,1768.705 2440.576,1769.485 Q2439.48,1770.266 2438.202,1771.594 Q2436.924,1772.922 2435.33,1774.914 L2435.33,1797.027 L2429.552,1797.027 z" fill="#FFFFFF"/>
    <path d="M2490.945,1768.406 Q2491.875,1769.568 2492.389,1771.112 Q2492.904,1772.656 2492.904,1774.449 Q2492.904,1777.039 2491.958,1779.181 Q2491.011,1781.322 2489.285,1782.85 Q2487.558,1784.377 2485.151,1785.224 Q2482.744,1786.07 2479.855,1786.07 Q2477.763,1786.07 2475.937,1785.622 Q2474.111,1785.174 2473.049,1784.51 Q2472.418,1785.44 2471.986,1786.27 Q2471.554,1787.1 2471.554,1788.129 Q2471.554,1789.391 2472.766,1790.221 Q2473.978,1791.051 2475.97,1791.117 L2484.736,1791.449 Q2487.226,1791.516 2489.335,1792.08 Q2491.443,1792.645 2492.954,1793.707 Q2494.465,1794.77 2495.311,1796.33 Q2496.158,1797.891 2496.158,1799.949 Q2496.158,1802.174 2495.195,1804.166 Q2494.232,1806.158 2492.223,1807.669 Q2490.215,1809.18 2487.127,1810.076 Q2484.039,1810.973 2479.789,1810.973 Q2475.738,1810.973 2472.899,1810.325 Q2470.06,1809.678 2468.234,1808.532 Q2466.408,1807.387 2465.578,1805.81 Q2464.748,1804.233 2464.748,1802.34 Q2464.748,1799.916 2465.877,1798.09 Q2467.006,1796.264 2469.363,1794.57 Q2468.5,1794.172 2467.869,1793.574 Q2467.238,1792.977 2466.84,1792.263 Q2466.441,1791.549 2466.242,1790.752 Q2466.043,1789.955 2466.043,1789.192 Q2466.043,1787.033 2467.055,1785.24 Q2468.068,1783.447 2469.463,1781.854 Q2468.832,1781.09 2468.35,1780.359 Q2467.869,1779.629 2467.52,1778.782 Q2467.172,1777.936 2466.989,1776.956 Q2466.806,1775.977 2466.806,1774.715 Q2466.806,1772.125 2467.753,1769.984 Q2468.699,1767.842 2470.409,1766.315 Q2472.119,1764.787 2474.526,1763.941 Q2476.933,1763.094 2479.855,1763.094 Q2481.084,1763.094 2482.213,1763.26 Q2483.342,1763.426 2484.205,1763.692 L2496.291,1763.692 L2496.291,1768.406 z M2470.89,1801.842 Q2470.89,1804.199 2473.347,1805.278 Q2475.804,1806.358 2480.187,1806.358 Q2482.943,1806.358 2484.819,1805.859 Q2486.695,1805.361 2487.841,1804.548 Q2488.986,1803.734 2489.484,1802.689 Q2489.982,1801.643 2489.982,1800.547 Q2489.982,1798.522 2488.322,1797.559 Q2486.662,1796.596 2483.242,1796.43 L2474.543,1796.131 Q2473.447,1796.861 2472.733,1797.559 Q2472.019,1798.256 2471.621,1798.97 Q2471.222,1799.684 2471.056,1800.398 Q2470.89,1801.111 2470.89,1801.842 z M2472.65,1774.582 Q2472.65,1776.176 2473.181,1777.504 Q2473.713,1778.832 2474.676,1779.762 Q2475.638,1780.692 2476.95,1781.206 Q2478.261,1781.721 2479.855,1781.721 Q2481.582,1781.721 2482.927,1781.14 Q2484.271,1780.559 2485.184,1779.563 Q2486.097,1778.567 2486.579,1777.272 Q2487.06,1775.977 2487.06,1774.582 Q2487.06,1772.988 2486.529,1771.66 Q2485.998,1770.332 2485.035,1769.402 Q2484.072,1768.473 2482.76,1767.958 Q2481.449,1767.443 2479.855,1767.443 Q2478.129,1767.443 2476.784,1768.041 Q2475.439,1768.639 2474.526,1769.618 Q2473.613,1770.598 2473.132,1771.893 Q2472.65,1773.188 2472.65,1774.582 z" fill="#FFFFFF"/>
  </g>
</svg>
