<?xml version="1.0" encoding="UTF-8"?>
<!DOCTYPE svg PUBLIC "-//W3C//DTD SVG 1.1//EN" "http://www.w3.org/Graphics/SVG/1.1/DTD/svg11.dtd">
<svg version="1.1" xmlns="http://www.w3.org/2000/svg" xmlns:xlink="http://www.w3.org/1999/xlink" x="0" y="0" width="679.017" height="820.69" viewBox="0, 0, 679.017, 820.69">
  <g id="Layer_1" transform="translate(-1616.932, -685.258)">
    <path d="M1956.906,685.258 L2197.303,925.656 C2330.071,1058.424 2330.071,1273.683 2197.303,1406.451 C2064.535,1539.219 1849.276,1539.219 1716.508,1406.451 C1583.741,1273.683 1583.741,1058.424 1716.508,925.656 L1947.006,695.158 L1956.906,685.258 z M2051.151,819.101 L1970.906,899.346 L1970.906,1123.095 L2035.241,1034.544 L2028.07,989.266 C2022.399,953.46 2046.828,919.835 2082.635,914.164 C2088.183,913.429 2084.86,913.783 2092.626,913.347 C2125.795,914.114 2151.712,936.06 2157.737,968.729 C2163.408,1004.535 2138.978,1038.16 2103.172,1043.831 L2057.894,1051.002 L1979.558,1158.822 L2106.307,1200.005 L2147.154,1179.193 C2154.01,1175.715 2161.435,1173.422 2169.072,1172.495 C2171.187,1172.239 2173.323,1172.192 2175.449,1172.041 C2200.991,1171.81 2223.346,1185.555 2235.441,1207.879 C2251.9,1240.181 2239.057,1279.709 2206.755,1296.167 C2174.453,1312.626 2134.926,1299.782 2118.467,1267.481 L2097.655,1226.635 L1970.906,1185.451 L1970.906,1318.723 L2003.321,1351.139 C2028.956,1376.774 2028.956,1418.336 2003.321,1443.97 C1977.687,1469.605 1936.125,1469.605 1910.49,1443.97 C1884.855,1418.336 1884.855,1376.774 1910.49,1351.139 L1942.906,1318.723 L1942.906,1185.451 L1816.156,1226.634 L1795.344,1267.481 C1778.886,1299.783 1739.358,1312.626 1707.056,1296.167 C1674.755,1279.709 1661.912,1240.181 1678.37,1207.88 C1691.149,1184.049 1711.746,1172.741 1738.363,1172.041 C1748.302,1172.184 1757.751,1174.935 1766.658,1179.193 L1807.503,1200.005 L1934.253,1158.822 L1855.918,1051.002 L1810.639,1043.831 C1774.833,1038.16 1750.403,1004.536 1756.075,968.729 C1762.342,934.922 1787.325,914.858 1821.185,913.347 C1828.952,913.783 1825.629,913.429 1831.177,914.164 C1866.983,919.835 1891.413,953.46 1885.742,989.266 L1878.57,1034.544 L1942.906,1123.094 L1942.906,899.346 L1862.661,819.101 L1736.307,945.455 C1614.474,1067.288 1614.474,1264.819 1736.307,1386.652 C1858.141,1508.485 2055.671,1508.485 2177.504,1386.652 C2299.337,1264.819 2299.337,1067.288 2177.504,945.455 L2051.151,819.101 z" fill="#FFFFFF"/>
  </g>
</svg>
