<?xml version="1.0" encoding="UTF-8"?>
<!DOCTYPE svg PUBLIC "-//W3C//DTD SVG 1.1//EN" "http://www.w3.org/Graphics/SVG/1.1/DTD/svg11.dtd">
<svg version="1.1" xmlns="http://www.w3.org/2000/svg" xmlns:xlink="http://www.w3.org/1999/xlink" x="0" y="0" width="1077.609" height="1033.967" viewBox="0, 0, 1077.609, 1033.967">
  <g id="Layer_1" transform="translate(-1418.031, -685.258)">
    <path d="M1956.906,685.258 L2197.303,925.656 C2330.071,1058.424 2330.071,1273.683 2197.303,1406.451 C2064.535,1539.219 1849.276,1539.219 1716.508,1406.451 C1583.741,1273.683 1583.741,1058.424 1716.508,925.656 L1947.006,695.158 L1956.906,685.258 z M2051.151,819.101 L1970.906,899.346 L1970.906,1123.095 L2035.241,1034.544 L2028.07,989.266 C2022.399,953.46 2046.828,919.835 2082.635,914.164 C2088.183,913.429 2084.86,913.783 2092.626,913.347 C2125.795,914.114 2151.712,936.06 2157.737,968.729 C2163.408,1004.535 2138.978,1038.16 2103.172,1043.831 L2057.894,1051.002 L1979.558,1158.822 L2106.307,1200.005 L2147.154,1179.193 C2154.01,1175.715 2161.435,1173.422 2169.072,1172.495 C2171.187,1172.239 2173.323,1172.192 2175.449,1172.041 C2200.991,1171.81 2223.346,1185.555 2235.441,1207.879 C2251.9,1240.181 2239.057,1279.709 2206.755,1296.167 C2174.453,1312.626 2134.926,1299.782 2118.467,1267.481 L2097.655,1226.635 L1970.906,1185.451 L1970.906,1318.723 L2003.321,1351.139 C2028.956,1376.774 2028.956,1418.336 2003.321,1443.97 C1977.687,1469.605 1936.125,1469.605 1910.49,1443.97 C1884.855,1418.336 1884.855,1376.774 1910.49,1351.139 L1942.906,1318.723 L1942.906,1185.451 L1816.156,1226.634 L1795.344,1267.481 C1778.886,1299.783 1739.358,1312.626 1707.056,1296.167 C1674.755,1279.709 1661.912,1240.181 1678.37,1207.88 C1691.149,1184.049 1711.746,1172.741 1738.363,1172.041 C1748.302,1172.184 1757.751,1174.935 1766.658,1179.193 L1807.503,1200.005 L1934.253,1158.822 L1855.918,1051.002 L1810.639,1043.831 C1774.833,1038.16 1750.403,1004.536 1756.075,968.729 C1762.342,934.922 1787.325,914.858 1821.185,913.347 C1828.952,913.783 1825.629,913.429 1831.177,914.164 C1866.983,919.835 1891.413,953.46 1885.742,989.266 L1878.57,1034.544 L1942.906,1123.094 L1942.906,899.346 L1862.661,819.101 L1736.307,945.455 C1614.474,1067.288 1614.474,1264.819 1736.307,1386.652 C1858.141,1508.485 2055.671,1508.485 2177.504,1386.652 C2299.337,1264.819 2299.337,1067.288 2177.504,945.455 L2051.151,819.101 z" fill="#FFFFFF"/>
    <path d="M1550.781,1622.757 Q1550.781,1635.975 1548.742,1648.069 Q1546.703,1660.163 1542.203,1670.569 Q1537.703,1680.975 1530.531,1689.483 Q1523.359,1697.991 1512.953,1704.038 Q1502.547,1710.085 1488.765,1713.39 Q1474.984,1716.694 1457.406,1716.694 L1418.031,1716.694 L1418.031,1532.897 L1465.422,1532.897 Q1508.453,1532.897 1529.617,1555.046 Q1550.781,1577.194 1550.781,1622.757 z M1524.484,1624.585 Q1524.484,1605.038 1520.828,1591.538 Q1517.172,1578.038 1509.718,1569.741 Q1502.265,1561.444 1491.015,1557.718 Q1479.765,1553.991 1464.578,1553.991 L1443.062,1553.991 L1443.062,1695.038 L1461.765,1695.038 Q1524.484,1695.038 1524.484,1624.585 z" fill="#FFFFFF"/>
    <path d="M1627.562,1553.991 L1585.234,1553.991 L1585.234,1532.897 L1695.203,1532.897 L1695.203,1553.991 L1652.875,1553.991 L1652.875,1695.319 L1695.203,1695.319 L1695.203,1716.694 L1585.234,1716.694 L1585.234,1695.319 L1627.562,1695.319 z" fill="#FFFFFF"/>
    <path d="M1859.593,1666.913 Q1859.593,1679.991 1854.25,1689.835 Q1848.906,1699.679 1839.343,1706.218 Q1829.781,1712.757 1816.351,1715.991 Q1802.922,1719.225 1786.75,1719.225 Q1779.437,1719.225 1772.195,1718.663 Q1764.953,1718.1 1758.273,1717.257 Q1751.593,1716.413 1745.687,1715.288 Q1739.781,1714.163 1735,1712.897 L1735,1688.71 Q1745.547,1692.647 1758.695,1694.897 Q1771.843,1697.147 1788.578,1697.147 Q1800.672,1697.147 1809.179,1695.249 Q1817.687,1693.35 1823.101,1689.624 Q1828.515,1685.897 1830.976,1680.554 Q1833.437,1675.21 1833.437,1668.319 Q1833.437,1660.866 1829.289,1655.593 Q1825.14,1650.319 1818.39,1646.171 Q1811.64,1642.022 1802.992,1638.577 Q1794.343,1635.132 1785.343,1631.475 Q1776.343,1627.819 1767.695,1623.53 Q1759.047,1619.241 1752.297,1613.405 Q1745.547,1607.569 1741.398,1599.694 Q1737.25,1591.819 1737.25,1580.991 Q1737.25,1571.569 1741.187,1562.429 Q1745.125,1553.288 1753.422,1546.186 Q1761.718,1539.085 1774.726,1534.725 Q1787.734,1530.366 1805.734,1530.366 Q1810.375,1530.366 1815.789,1530.788 Q1821.203,1531.21 1826.757,1531.983 Q1832.312,1532.757 1837.726,1533.741 Q1843.14,1534.725 1847.781,1535.85 L1847.781,1558.35 Q1836.953,1555.257 1826.125,1553.64 Q1815.297,1552.022 1805.172,1552.022 Q1783.656,1552.022 1773.531,1559.194 Q1763.406,1566.366 1763.406,1578.46 Q1763.406,1585.913 1767.554,1591.257 Q1771.703,1596.6 1778.453,1600.819 Q1785.203,1605.038 1793.851,1608.483 Q1802.5,1611.929 1811.5,1615.585 Q1820.5,1619.241 1829.148,1623.6 Q1837.797,1627.96 1844.547,1633.936 Q1851.297,1639.913 1855.445,1647.929 Q1859.593,1655.944 1859.593,1666.913 z" fill="#FFFFFF"/>
    <path d="M2023.984,1554.272 L1969.562,1554.272 L1969.562,1716.694 L1944.25,1716.694 L1944.25,1554.272 L1889.828,1554.272 L1889.828,1532.897 L2023.984,1532.897 z" fill="#FFFFFF"/>
    <path d="M2183.875,1716.694 L2155.609,1716.694 L2128.187,1657.913 Q2125.094,1651.163 2121.859,1646.733 Q2118.625,1642.304 2114.898,1639.702 Q2111.172,1637.1 2106.742,1635.975 Q2102.312,1634.85 2096.828,1634.85 L2085.015,1634.85 L2085.015,1716.694 L2059.984,1716.694 L2059.984,1532.897 L2109.203,1532.897 Q2125.234,1532.897 2136.765,1536.413 Q2148.297,1539.929 2155.679,1546.257 Q2163.062,1552.585 2166.508,1561.515 Q2169.953,1570.444 2169.953,1581.272 Q2169.953,1589.85 2167.422,1597.515 Q2164.89,1605.179 2159.898,1611.436 Q2154.906,1617.694 2147.523,1622.265 Q2140.14,1626.835 2130.578,1629.085 Q2138.312,1631.757 2143.726,1638.436 Q2149.14,1645.116 2154.765,1656.225 z M2143.797,1583.382 Q2143.797,1568.616 2134.586,1561.304 Q2125.375,1553.991 2108.64,1553.991 L2085.015,1553.991 L2085.015,1614.741 L2105.265,1614.741 Q2114.125,1614.741 2121.226,1612.702 Q2128.328,1610.663 2133.32,1606.655 Q2138.312,1602.647 2141.054,1596.811 Q2143.797,1590.975 2143.797,1583.382 z" fill="#FFFFFF"/>
    <path d="M2351.359,1716.694 L2324.078,1716.694 L2311.281,1676.616 L2234.781,1676.616 L2221.844,1716.694 L2195.828,1716.694 L2256.859,1532.897 L2291.172,1532.897 z M2304.109,1654.257 L2273.031,1555.96 L2241.953,1654.257 z" fill="#FFFFFF"/>
    <path d="M2495.64,1589.147 Q2495.64,1600.397 2491.422,1611.436 Q2487.203,1622.475 2478.344,1631.194 Q2469.484,1639.913 2455.703,1645.327 Q2441.922,1650.741 2422.797,1650.741 L2400.015,1650.741 L2400.015,1716.694 L2374.984,1716.694 L2374.984,1532.897 L2426.734,1532.897 Q2440.375,1532.897 2452.89,1535.921 Q2465.406,1538.944 2474.898,1545.694 Q2484.39,1552.444 2490.015,1563.132 Q2495.64,1573.819 2495.64,1589.147 z M2469.625,1590.272 Q2469.625,1572.554 2458.023,1563.132 Q2446.422,1553.71 2425.609,1553.71 L2400.015,1553.71 L2400.015,1629.366 L2423.359,1629.366 Q2445.578,1629.366 2457.601,1619.663 Q2469.625,1609.96 2469.625,1590.272 z" fill="#FFFFFF"/>
  </g>
</svg>
